<svg width="80" height="80" viewBox="0 0 80 80" fill="none" xmlns="http://www.w3.org/2000/svg">
  <!-- Hi-Hat -->
  <ellipse cx="20" cy="25" rx="12" ry="3" fill="#666"/>
  <ellipse cx="20" cy="23" rx="12" ry="3" fill="#999"/>
  <line x1="20" y1="23" x2="20" y2="40" stroke="#444" stroke-width="2"/>
  
  <!-- Snare -->
  <ellipse cx="40" cy="40" rx="8" ry="4" fill="#999"/>
  <ellipse cx="40" cy="38" rx="8" ry="4" fill="#ccc"/>
  <rect x="32" y="32" width="16" height="8" fill="#aaa" rx="1"/>
  
  <!-- Tom -->
  <ellipse cx="60" cy="35" rx="6" ry="3" fill="#999"/>
  <ellipse cx="60" cy="33" rx="6" ry="3" fill="#ccc"/>
  <rect x="54" y="28" width="12" height="6" fill="#aaa" rx="1"/>
  
  <!-- Bass Drum -->
  <ellipse cx="40" cy="60" rx="18" ry="8" fill="#999"/>
  <ellipse cx="40" cy="58" rx="18" ry="8" fill="#ccc"/>
  <circle cx="40" cy="58" r="5" fill="#666"/>
  
  <!-- Cymbal -->
  <ellipse cx="65" cy="20" rx="10" ry="2" fill="#ffd700"/>
  <line x1="65" y1="20" x2="65" y2="40" stroke="#444" stroke-width="2"/>
  
  <!-- Kick Pedal -->
  <rect x="20" y="65" width="8" height="4" fill="#333" rx="1"/>
  <line x1="24" y1="65" x2="32" y2="58" stroke="#666" stroke-width="2"/>
</svg>